<?xml version="1.0" standalone="no"?>
<!DOCTYPE svg PUBLIC "-//W3C//DTD SVG 20010904//EN"
 "http://www.w3.org/TR/2001/REC-SVG-20010904/DTD/svg10.dtd">
<svg version="1.0" 
  class="sona-logo"
xmlns="http://www.w3.org/2000/svg"
 width="474.000000pt" height="526.000000pt" viewBox="0 0 474.000000 526.000000"
 preserveAspectRatio="xMidYMid meet">

<g transform="translate(0.000000,526.000000) scale(0.100000,-0.100000)"
fill="#fff" stroke="none">
<path d="M2018 5037 l-88 -10 0 -51 c0 -85 29 -369 39 -379 4 -4 28 -7 52 -5
l44 3 3 77 3 77 32 5 c18 3 46 7 62 8 33 3 42 27 30 75 -6 25 -8 25 -70 18
l-64 -6 -7 35 c-9 52 6 66 76 66 73 0 90 6 90 34 -1 57 -9 66 -64 64 -28 0
-90 -6 -138 -11z"/>
<path d="M2332 5038 c-9 -9 -12 -67 -12 -220 l0 -207 34 -6 c65 -13 70 -7 79
75 4 41 6 140 5 220 l-3 145 -45 3 c-26 2 -50 -2 -58 -10z"/>
<path d="M2554 5006 c-3 -13 -4 -37 -2 -52 3 -25 9 -30 48 -40 45 -11 45 -11
45 -55 -1 -24 -7 -95 -13 -158 -7 -63 -9 -118 -5 -122 5 -5 30 -12 55 -15 55
-8 48 -24 73 171 9 72 19 134 22 138 3 5 29 5 58 2 l52 -7 7 43 c5 29 3 46 -6
55 -12 11 -270 64 -311 64 -9 0 -19 -10 -23 -24z"/>
<path d="M3036 4892 c-8 -15 -24 -55 -35 -87 -11 -33 -36 -106 -56 -163 -19
-57 -35 -109 -35 -116 0 -17 74 -50 94 -43 8 3 20 24 26 47 6 22 20 62 31 88
25 57 31 49 48 -63 22 -143 26 -151 76 -171 25 -9 49 -14 53 -10 20 20 136
370 129 389 -3 8 -22 22 -43 32 -36 17 -38 17 -51 -1 -8 -11 -23 -50 -35 -89
-21 -70 -33 -93 -43 -83 -3 3 -14 61 -26 129 -20 127 -22 131 -76 155 -42 18
-40 19 -57 -14z"/>
<path d="M1398 4858 c-46 -20 -48 -22 -48 -62 0 -92 23 -402 31 -410 12 -13
87 23 94 44 3 10 5 22 4 26 -4 24 5 33 51 53 l51 22 25 -20 c24 -19 28 -19 62
-5 21 8 41 19 46 24 12 12 -243 351 -263 350 -3 -1 -27 -10 -53 -22z m129
-236 c6 -27 -9 -42 -43 -42 -26 0 -34 24 -33 95 l0 50 35 -40 c19 -21 37 -50
41 -63z"/>
<path d="M1047 4665 c-15 -14 -27 -34 -27 -44 0 -10 23 -50 50 -89 28 -39 50
-76 50 -82 0 -15 -22 -12 -47 5 -44 31 -165 77 -187 71 -11 -4 -34 -17 -50
-30 l-29 -24 23 -39 c66 -108 203 -313 211 -313 4 0 24 14 43 31 41 35 40 36
-28 138 -58 86 -52 88 77 30 100 -45 118 -45 161 0 l28 29 -54 83 c-30 46 -79
123 -109 171 -30 48 -61 88 -69 88 -8 0 -28 -11 -43 -25z"/>
<path d="M3508 4638 c-50 -72 -189 -312 -185 -322 6 -15 231 -186 245 -186 6
0 16 9 22 19 21 40 11 60 -56 112 -67 53 -78 80 -43 102 12 8 27 2 64 -26 57
-44 78 -46 93 -12 19 40 15 48 -38 88 -27 21 -50 44 -50 51 0 44 35 61 60 31
16 -19 98 -75 110 -75 11 0 40 40 40 56 0 6 -30 36 -66 65 -36 30 -86 71 -111
92 -24 20 -48 37 -53 37 -5 0 -19 -15 -32 -32z"/>
<path d="M2010 4490 c-302 -58 -529 -155 -747 -317 -371 -276 -598 -673 -633
-1107 -21 -262 22 -501 135 -758 99 -225 274 -439 500 -614 183 -141 323 -207
660 -308 47 -14 112 -25 245 -42 165 -21 447 5 630 56 246 70 473 188 649 340
331 285 515 636 552 1055 22 251 -40 564 -157 797 -171 340 -468 617 -827 772
-100 43 -130 53 -272 95 -182 53 -541 68 -735 31z m534 -66 c420 -65 797 -276
1058 -594 138 -167 241 -381 294 -606 26 -109 28 -135 29 -319 0 -184 -2 -209
-28 -316 -45 -188 -128 -374 -239 -534 -54 -78 -266 -289 -341 -340 -189 -129
-350 -207 -526 -254 -175 -47 -217 -53 -418 -58 -168 -5 -208 -3 -320 16 -485
84 -875 340 -1135 746 -57 89 -98 177 -142 302 -57 165 -70 252 -71 473 0 170
3 208 23 295 118 506 465 897 972 1098 239 95 582 132 844 91z"/>
<path d="M2955 4181 c-57 -24 -140 -159 -195 -320 -27 -77 -30 -97 -21 -118 6
-13 16 -23 22 -21 6 2 23 42 38 88 46 144 116 268 184 332 41 37 24 60 -28 39z"/>
<path d="M3023 4110 c-26 -11 -79 -81 -125 -165 -70 -129 -107 -285 -67 -285
5 0 14 12 20 27 6 15 16 41 24 58 7 16 28 67 45 112 34 87 89 171 142 214 46
38 21 63 -39 39z"/>
<path d="M3083 4018 c-71 -53 -138 -164 -183 -307 -18 -56 -30 -104 -27 -108
17 -16 37 15 72 113 41 115 114 236 167 277 17 14 28 29 24 36 -10 16 -18 14
-53 -11z"/>
<path d="M2237 4000 c-19 -16 -49 -57 -67 -91 -27 -50 -33 -76 -37 -143 -5
-75 -3 -88 22 -145 34 -75 55 -91 118 -91 42 0 54 5 81 33 51 50 76 130 76
240 0 76 -4 101 -24 144 -40 85 -109 106 -169 53z"/>
<path d="M3258 3773 c-72 -57 -136 -170 -174 -311 -19 -71 -23 -96 -14 -107 6
-8 18 -11 25 -9 10 4 15 -7 17 -43 2 -40 6 -48 22 -48 15 0 24 15 40 65 36
109 156 318 209 361 22 18 20 62 -4 67 -19 4 -102 -116 -191 -278 -48 -86 -63
-110 -69 -110 -8 0 1 51 11 65 4 6 13 28 20 50 19 58 86 193 116 232 14 19 37
39 50 45 13 6 24 19 24 30 0 27 -41 23 -82 -9z"/>
<path d="M3040 3650 c0 -6 -75 -86 -167 -179 -179 -179 -239 -223 -385 -280
-213 -86 -313 -78 -354 27 -14 35 -16 63 -11 155 4 62 10 122 13 135 11 37
-13 25 -50 -25 -107 -147 -191 -354 -184 -455 6 -76 42 -129 108 -157 113 -49
266 -10 475 122 133 84 192 132 314 256 97 100 137 151 184 236 59 108 85 175
68 175 -6 0 -11 -5 -11 -10z"/>
<path d="M3368 3603 c-87 -122 -188 -317 -188 -363 0 -41 37 -43 46 -2 21 98
97 253 152 310 6 8 17 22 23 33 5 11 21 24 35 29 34 13 31 40 -5 40 -23 0 -36
-10 -63 -47z"/>
<path d="M3393 3458 c-23 -29 -83 -146 -83 -161 0 -31 17 -17 54 43 43 70 66
166 29 118z"/>
<path d="M1349 3435 c-19 -31 -59 -308 -66 -450 -6 -140 16 -380 47 -501 33
-130 103 -253 168 -296 19 -13 47 -18 92 -18 88 0 148 35 266 156 51 52 95 94
98 94 20 0 38 -82 38 -170 1 -158 -36 -292 -132 -488 -44 -90 -80 -170 -80
-178 0 -19 23 -6 105 58 230 178 330 430 312 784 -13 260 -76 384 -193 384
-41 0 -144 -45 -181 -79 -50 -46 -153 -128 -192 -153 -92 -58 -164 -25 -210
97 -40 106 -52 205 -59 495 -4 151 -10 271 -13 265z"/>
<path d="M3820 4275 c-43 -44 -45 -94 -7 -187 35 -86 36 -118 3 -118 -32 0
-56 35 -56 79 0 35 -34 96 -58 106 -14 5 -42 -50 -42 -83 0 -40 33 -113 70
-155 48 -54 105 -74 155 -52 73 30 83 98 33 225 -27 71 -30 83 -17 95 23 23
59 -7 59 -48 0 -38 47 -109 69 -105 21 4 36 65 27 110 -9 47 -62 126 -100 149
-50 30 -96 25 -136 -16z"/>
<path d="M634 4256 c-41 -18 -92 -81 -105 -131 -14 -51 -6 -123 20 -172 38
-75 132 -139 188 -128 10 2 29 4 42 4 35 1 116 87 130 136 6 22 11 51 11 65 0
116 -108 240 -209 240 -25 -1 -60 -7 -77 -14z m123 -133 c60 -46 80 -120 45
-163 -53 -66 -182 25 -182 128 0 75 63 91 137 35z"/>
<path d="M4105 3891 c-57 -24 -75 -87 -56 -196 13 -75 8 -105 -18 -105 -32 0
-44 26 -38 80 5 38 1 61 -14 95 -11 25 -24 45 -30 45 -22 0 -49 -66 -49 -121
0 -71 47 -171 94 -200 57 -36 123 -10 153 59 11 26 11 49 2 122 -9 72 -9 93 1
105 12 14 15 14 31 -1 14 -12 19 -31 19 -66 0 -50 19 -110 39 -122 6 -4 20 8
31 26 17 27 20 45 17 93 -10 135 -95 221 -182 186z"/>
<path d="M378 3805 c-81 -45 -112 -213 -52 -284 53 -63 117 -47 185 47 55 76
53 74 72 66 34 -13 10 -114 -27 -114 -14 0 -30 -32 -41 -81 -8 -35 14 -43 63
-24 48 20 79 67 99 149 15 60 15 68 -1 110 -28 73 -102 107 -154 70 -12 -8
-40 -42 -63 -75 -31 -47 -45 -59 -62 -57 -35 5 -34 44 2 77 31 29 66 105 55
122 -8 13 -45 10 -76 -6z"/>
<path d="M3902 2143 c-58 -38 -86 -98 -86 -184 0 -58 4 -72 28 -104 71 -92
218 -101 298 -18 75 80 80 202 10 277 -37 39 -81 56 -150 56 -46 0 -66 -5
-100 -27z m189 -122 c66 -67 6 -142 -100 -125 -54 9 -91 43 -91 85 0 53 23 69
97 69 58 0 68 -3 94 -29z"/>
<path d="M716 1980 c-88 -35 -126 -86 -126 -173 0 -61 29 -111 93 -160 20 -15
37 -36 37 -46 0 -42 41 -52 80 -20 14 11 42 31 63 45 21 14 37 29 35 34 -8 23
-84 120 -94 120 -21 0 -43 -35 -37 -58 6 -23 -3 -27 -44 -16 -28 8 -46 64 -33
99 19 50 70 85 124 85 54 0 71 -24 66 -92 -1 -26 45 -98 62 -98 16 0 38 61 38
103 0 32 -8 56 -31 90 -36 55 -69 81 -124 96 -51 14 -50 14 -109 -9z"/>
<path d="M3680 1840 c-17 -22 -30 -44 -28 -49 4 -12 257 -221 267 -221 16 0
61 57 61 77 0 12 -12 30 -28 42 -16 11 -73 58 -128 105 -54 47 -102 86 -106
86 -3 0 -21 -18 -38 -40z"/>
<path d="M1017 1773 c-3 -5 -11 -61 -18 -126 -12 -112 -15 -121 -51 -169 -21
-27 -38 -54 -38 -59 0 -5 19 -21 41 -36 l41 -27 47 51 c43 49 54 55 159 89 61
20 112 40 112 45 0 10 -81 69 -96 69 -6 0 -33 -9 -59 -21 -58 -26 -71 -17 -56
37 18 66 14 89 -21 116 -46 35 -56 39 -61 31z"/>
<path d="M3553 1702 c-42 -23 -182 -135 -182 -146 -1 -5 21 -35 47 -65 26 -31
74 -89 105 -128 34 -42 65 -73 76 -73 10 0 56 37 103 83 63 60 87 91 92 115
19 104 -82 233 -181 232 -15 -1 -42 -9 -60 -18z m105 -129 c40 -45 44 -101 10
-133 -12 -11 -27 -20 -34 -20 -12 0 -76 72 -107 121 -16 24 -16 26 5 46 47 42
78 38 126 -14z"/>
<path d="M1312 1464 c-13 -36 -41 -109 -64 -161 -45 -105 -43 -116 19 -129 26
-5 34 -3 39 12 53 145 84 158 64 28 -11 -71 -10 -79 6 -91 19 -14 74 -18 74
-5 1 14 88 107 95 100 6 -6 -6 -44 -40 -130 -5 -12 2 -21 24 -32 16 -9 36 -16
44 -16 19 0 137 262 137 305 0 15 -76 55 -106 55 -8 0 -40 -31 -71 -70 -32
-38 -63 -70 -71 -70 -10 0 -12 24 -10 112 l3 111 -60 24 c-32 13 -59 23 -60
23 0 0 -10 -30 -23 -66z"/>
<path d="M3180 1467 c-125 -52 -180 -82 -180 -97 0 -8 30 -79 67 -158 l68
-143 34 5 c19 3 42 12 50 21 13 13 14 20 2 48 -25 59 -20 80 19 93 45 15 52
11 79 -36 12 -22 29 -40 36 -40 18 0 68 22 76 33 10 14 -40 101 -68 119 -23
15 -27 23 -24 54 4 48 -14 86 -48 107 -37 22 -45 21 -111 -6z m60 -97 c15 -28
-2 -55 -42 -69 -29 -11 -35 -9 -50 10 -25 30 -22 46 10 63 38 21 69 20 82 -4z"/>
<path d="M2822 1346 c-24 -6 -48 -19 -53 -28 -5 -9 -12 -58 -15 -110 -3 -51
-9 -123 -13 -161 -9 -84 -4 -92 45 -81 26 7 43 18 54 39 20 37 78 54 125 36
51 -18 115 -12 115 11 0 17 -194 307 -205 307 -5 -1 -29 -6 -53 -13z m75 -176
c24 -51 23 -56 -11 -62 -34 -7 -46 8 -46 57 0 71 23 73 57 5z"/>
<path d="M1840 1295 c-20 -21 -22 -31 -17 -73 5 -45 4 -50 -19 -63 -14 -7 -32
-26 -40 -41 -23 -45 -17 -76 22 -116 l36 -37 85 2 c48 1 96 -3 107 -9 33 -18
85 -27 92 -16 4 5 -3 23 -15 39 -27 37 -27 47 6 81 l26 27 -28 11 c-20 8 -37
8 -59 0 -22 -8 -32 -7 -38 2 -12 19 -11 22 22 53 22 21 30 38 30 63 0 68 -44
102 -133 102 -44 0 -58 -4 -77 -25z m134 -51 c3 -8 1 -24 -5 -35 -20 -38 -81
-5 -66 35 8 21 63 22 71 0z m-58 -159 c29 -44 -6 -72 -57 -45 -23 13 -24 33
-3 54 22 23 41 20 60 -9z"/>
<path d="M2450 1294 c-59 -24 -79 -40 -101 -77 -46 -81 -20 -206 54 -261 23
-17 43 -21 107 -21 72 0 81 2 117 31 35 28 67 89 56 107 -8 14 -82 7 -95 -9
-36 -44 -59 -64 -73 -64 -29 0 -72 53 -80 98 -16 95 62 159 119 98 18 -20 33
-26 65 -26 27 0 44 5 47 14 8 20 -22 73 -51 92 -26 17 -138 29 -165 18z"/>
<path d="M3747 703 c-3 -5 -5 -45 -6 -91 -2 -75 0 -83 16 -80 15 3 18 13 16
63 -1 33 -2 70 -3 82 0 23 -15 39 -23 26z"/>
<path d="M3196 684 c-25 -25 -19 -45 27 -85 33 -30 39 -40 30 -50 -10 -10 -16
-9 -31 4 -22 20 -42 22 -42 4 0 -36 74 -51 104 -21 31 31 17 59 -50 100 -15
10 -17 14 -6 25 9 10 15 10 24 1 18 -18 38 -14 38 7 0 33 -66 43 -94 15z"/>
<path d="M3657 693 c-4 -3 -7 -14 -7 -24 0 -12 -6 -16 -19 -12 -26 7 -51 -23
-51 -62 0 -57 7 -65 61 -65 l49 0 0 85 c0 64 -3 85 -13 85 -8 0 -17 -3 -20 -7z
m-7 -104 c0 -28 -4 -39 -12 -37 -24 8 -22 78 2 78 5 0 10 -18 10 -41z"/>
<path d="M2797 673 c-8 -29 7 -158 18 -156 6 2 11 41 13 88 2 69 0 85 -12 85
-8 0 -17 -8 -19 -17z"/>
<path d="M2974 653 c3 -21 6 -59 6 -85 0 -36 4 -48 15 -48 11 0 15 11 15 38 0
40 14 71 26 59 4 -4 10 -26 13 -50 9 -61 26 -47 26 21 0 55 -1 57 -29 60 -18
2 -30 11 -33 23 -3 11 -14 19 -25 19 -18 0 -20 -5 -14 -37z"/>
<path d="M3345 681 c-3 -5 -2 -41 1 -80 5 -56 10 -71 23 -71 14 0 16 11 15 68
-1 37 -2 73 -3 80 -1 14 -27 16 -36 3z"/>
<path d="M2332 598 c3 -70 6 -83 21 -86 13 -3 17 3 17 28 0 19 6 33 16 37 19
7 34 -13 34 -44 0 -14 6 -23 15 -23 12 0 15 16 15 86 0 76 -2 85 -17 82 -12
-2 -18 -13 -18 -30 -1 -33 -9 -42 -30 -35 -9 4 -15 19 -15 37 0 24 -4 30 -20
30 -20 0 -21 -5 -18 -82z"/>
<path d="M2885 670 c-3 -6 -3 -42 1 -80 5 -57 10 -70 24 -70 14 0 16 7 12 49
-2 29 0 51 7 55 7 5 6 14 -5 32 -17 26 -29 30 -39 14z"/>
<path d="M1790 616 c0 -73 10 -116 26 -116 11 0 14 17 14 69 0 78 -6 101 -26
101 -10 0 -14 -14 -14 -54z"/>
<path d="M2031 656 c-17 -21 -1 -136 21 -150 9 -5 19 -8 21 -6 2 3 1 37 -2 77
-7 78 -20 104 -40 79z"/>
<path d="M3850 663 c-23 -9 -30 -24 -30 -65 0 -59 7 -68 55 -68 48 0 55 9 55
70 0 56 -32 81 -80 63z m38 -70 c-2 -21 -7 -38 -13 -38 -5 0 -11 17 -13 38 -3
29 0 37 13 37 13 0 16 -8 13 -37z"/>
<path d="M607 647 c-8 -5 -5 -13 11 -24 15 -11 22 -26 23 -52 2 -55 13 -86 33
-89 17 -4 18 1 12 66 -6 65 -6 70 14 75 11 3 20 10 20 15 0 12 -97 20 -113 9z"/>
<path d="M1129 643 c-21 -25 -14 -122 11 -147 16 -17 25 -18 57 -10 28 7 39
15 41 32 3 17 -2 22 -17 22 -12 0 -21 -6 -21 -14 0 -19 -19 -31 -30 -20 -4 5
-11 33 -15 61 -6 44 -4 54 9 59 9 4 25 -1 35 -10 10 -9 21 -16 24 -16 12 0 8
35 -5 48 -18 18 -73 15 -89 -5z"/>
<path d="M756 578 c7 -90 9 -98 29 -98 13 0 16 9 15 38 -3 56 -1 64 13 60 6
-3 14 -24 17 -49 7 -60 34 -61 38 -2 4 53 -11 83 -43 83 -14 0 -29 8 -35 20
-6 11 -17 20 -25 20 -13 0 -14 -13 -9 -72z"/>
<path d="M3436 641 c-8 -13 0 -101 10 -111 5 -5 28 -6 52 -3 l42 6 0 59 c0 51
-2 59 -17 56 -14 -2 -18 -15 -20 -52 -3 -76 -20 -80 -27 -5 -2 24 -4 47 -5 52
-1 10 -29 9 -35 -2z"/>
<path d="M2513 634 c-8 -4 -13 -26 -13 -59 0 -43 4 -56 19 -65 27 -14 44 -13
67 4 15 12 17 17 7 27 -10 10 -15 9 -26 -5 -12 -16 -14 -16 -26 -2 -18 21 -5
37 27 34 25 -3 27 0 27 32 0 33 -2 35 -35 37 -19 1 -41 0 -47 -3z m47 -29 c0
-8 -7 -15 -15 -15 -16 0 -20 12 -8 23 11 12 23 8 23 -8z"/>
<path d="M2651 626 c-11 -13 -10 -17 4 -22 9 -4 21 -2 28 5 15 15 27 14 27 -2
0 -7 -16 -21 -35 -30 -59 -28 -39 -68 30 -64 l40 3 0 59 0 60 -41 3 c-27 2
-45 -2 -53 -12z m67 -79 c2 -12 -3 -17 -17 -17 -15 0 -21 6 -21 21 0 25 33 22
38 -4z"/>
<path d="M1880 611 c-11 -22 -13 -55 -4 -89 8 -27 46 -39 80 -23 38 17 30 34
-12 27 -31 -6 -35 -5 -32 11 2 12 14 19 36 21 26 3 32 8 32 26 0 31 -18 46
-57 46 -22 0 -36 -6 -43 -19z m60 -27 c0 -16 -16 -19 -25 -4 -8 13 4 32 16 25
5 -4 9 -13 9 -21z"/>
<path d="M2132 618 c-15 -15 -16 -72 -2 -99 13 -23 72 -26 90 -4 10 12 9 16
-5 21 -10 4 -20 1 -25 -6 -10 -17 -32 -3 -28 18 2 11 13 17 33 17 33 0 45 25
25 50 -15 18 -71 20 -88 3z m52 -29 c-3 -5 -10 -7 -15 -3 -5 3 -7 10 -3 15 3
5 10 7 15 3 5 -3 7 -10 3 -15z"/>
<path d="M1298 609 c-13 -7 -18 -23 -18 -60 0 -43 3 -51 24 -59 13 -5 37 -5
53 -1 25 7 28 12 31 53 4 67 -38 98 -90 67z m52 -65 c0 -56 -22 -56 -31 -1 -6
39 -3 47 18 47 9 0 13 -14 13 -46z"/>
<path d="M1429 608 c-3 -31 1 -111 5 -115 3 -3 12 -3 20 0 12 5 14 16 9 53 -5
42 -4 46 13 42 15 -2 20 -13 22 -51 2 -33 7 -47 18 -47 10 0 14 13 14 50 0 36
4 50 14 50 17 0 26 -22 26 -66 0 -24 5 -34 15 -34 11 0 15 12 15 53 0 28 -4
57 -8 63 -11 15 -162 17 -163 2z"/>
<path d="M1640 548 c0 -40 4 -79 9 -87 10 -16 31 -6 31 15 0 8 10 14 24 14 37
0 48 21 39 77 l-8 48 -48 3 -47 3 0 -73z m68 9 c2 -28 -1 -37 -12 -37 -18 0
-31 42 -22 66 10 27 31 9 34 -29z"/>
<path d="M912 593 c-5 -10 -7 -38 -3 -63 6 -44 7 -45 47 -48 27 -2 45 2 53 12
11 13 10 17 -5 23 -10 4 -19 2 -22 -5 -6 -20 -32 -13 -32 9 0 16 5 20 19 16
29 -7 53 11 45 36 -9 29 -22 37 -61 37 -21 0 -36 -6 -41 -17z m58 -18 c0 -8
-4 -15 -10 -15 -5 0 -10 7 -10 15 0 8 5 15 10 15 6 0 10 -7 10 -15z"/>
<path d="M3137 314 c4 -22 7 -72 6 -113 -1 -63 0 -72 12 -60 35 34 24 195 -13
207 -10 3 -11 -4 -5 -34z"/>
<path d="M2240 333 c-23 -9 -31 -25 -25 -51 3 -12 -2 -33 -11 -47 -32 -49 5
-86 77 -78 32 4 38 9 43 35 9 46 8 51 -15 45 -22 -6 -42 24 -21 31 19 6 14 50
-7 62 -11 5 -21 10 -23 9 -2 0 -10 -3 -18 -6z m28 -136 c2 -12 -3 -17 -17 -17
-15 0 -21 6 -21 21 0 25 33 22 38 -4z"/>
<path d="M2450 321 c-5 -11 -10 -44 -10 -75 0 -62 19 -91 54 -82 12 3 31 6 44
6 19 0 22 5 22 41 0 36 -2 40 -22 37 -14 -2 -22 -9 -19 -18 8 -35 5 -45 -14
-45 -17 0 -20 8 -23 54 -4 64 7 79 40 57 36 -23 53 -2 22 28 -22 23 -81 21
-94 -3z"/>
<path d="M2905 325 c-3 -8 -7 -22 -10 -30 -2 -8 0 -17 5 -20 6 -4 10 -26 10
-50 0 -45 11 -61 35 -51 11 4 12 13 4 40 -7 24 -6 42 1 56 8 15 7 26 -6 45
-19 28 -32 32 -39 10z"/>
<path d="M1687 314 c-4 -4 -7 -16 -7 -26 0 -13 -8 -18 -30 -18 l-31 0 3 -57 3
-58 48 -3 48 -3 -3 82 c-3 76 -12 101 -31 83z m-1 -91 c7 -27 -4 -56 -21 -55
-12 2 -19 47 -11 68 9 23 25 16 32 -13z"/>
<path d="M1770 310 c0 -5 7 -10 16 -10 8 0 12 5 9 10 -3 6 -10 10 -16 10 -5 0
-9 -4 -9 -10z"/>
<path d="M1266 288 c-27 -39 -15 -140 21 -178 13 -13 13 -10 6 25 -4 22 -7 70
-6 108 1 37 0 67 -2 67 -2 0 -11 -10 -19 -22z"/>
<path d="M1342 228 l3 -83 43 0 c44 0 63 18 24 23 -27 4 -33 16 -36 69 -5 69
-6 73 -21 73 -13 0 -15 -14 -13 -82z"/>
<path d="M2640 290 c-23 -5 -25 -11 -25 -60 0 -43 4 -55 17 -58 12 -2 15 2 11
17 -3 12 0 28 7 36 9 10 9 15 1 15 -6 0 -11 7 -11 16 0 9 7 14 18 12 10 -2 16
-11 14 -21 -2 -12 4 -17 18 -17 17 0 21 5 18 26 -3 30 -30 44 -68 34z"/>
<path d="M2788 293 c-37 -4 -38 -5 -38 -48 0 -53 8 -75 26 -75 10 0 14 14 14
50 0 37 4 50 14 50 11 0 16 -14 18 -47 2 -35 7 -48 18 -48 11 0 16 13 18 48 3
44 -10 80 -27 75 -3 -1 -23 -3 -43 -5z"/>
<path d="M3007 294 c-18 -18 -6 -56 23 -72 39 -22 38 -35 -1 -27 -24 6 -30 4
-27 -6 3 -8 20 -15 40 -17 60 -5 79 47 23 68 -33 12 -32 30 1 30 39 0 24 24
-17 28 -19 2 -38 0 -42 -4z"/>
<path d="M1777 274 c-4 -4 -7 -32 -7 -61 0 -47 3 -54 18 -51 14 3 16 12 14 53
-4 50 -13 71 -25 59z"/>
<path d="M1857 274 c-12 -12 -8 -99 5 -112 15 -15 74 -16 83 -2 13 20 -7 32
-25 15 -17 -16 -19 -15 -29 3 -13 24 -5 32 31 32 27 0 29 3 26 33 -3 30 -6 32
-43 35 -23 2 -44 0 -48 -4z m58 -23 c7 -12 -12 -24 -25 -16 -11 7 -4 25 10 25
5 0 11 -4 15 -9z"/>
<path d="M1997 273 c-16 -15 -5 -44 23 -65 37 -27 39 -41 4 -32 -20 5 -25 3
-22 -7 2 -8 17 -15 32 -17 57 -7 79 51 26 71 -42 16 -40 38 3 30 29 -6 31 -5
18 10 -13 17 -71 24 -84 10z"/>
<path d="M1476 254 c-5 -13 -1 -14 24 -9 41 9 41 -19 0 -40 -31 -16 -40 -49
-16 -58 7 -3 33 -3 56 0 l42 6 -5 49 c-4 27 -9 53 -12 58 -10 17 -82 12 -89
-6z m64 -74 c0 -11 -7 -20 -15 -20 -15 0 -21 21 -8 33 12 13 23 7 23 -13z"/>
<path d="M2677 185 c-5 -10 0 -15 14 -15 12 0 19 5 17 12 -6 18 -25 20 -31 3z"/>
</g>
</svg>
